<svg width="287" height="304" viewBox="0 0 287 304" fill="none" xmlns="http://www.w3.org/2000/svg">
<g id="instagram_logo.svg">
<g id="Vector" filter="url(#filter0_dd_41_7)">
<path d="M62.938 16.525C54.958 16.9015 49.5085 18.175 44.7445 20.047C39.814 21.9685 35.635 24.547 31.477 28.72C27.319 32.893 24.7585 37.075 22.8505 42.013C21.004 46.7875 19.753 52.2415 19.4005 60.226C19.048 68.2105 18.97 70.777 19.009 91.144C19.048 111.511 19.138 114.064 19.525 122.065C19.906 130.044 21.175 135.492 23.047 140.257C24.9715 145.188 27.547 149.365 31.7215 153.525C35.896 157.684 40.075 160.239 45.025 162.15C49.795 163.993 55.2505 165.25 63.2335 165.6C71.2165 165.949 73.786 166.03 94.147 165.991C114.508 165.952 117.071 165.862 125.071 165.483C133.07 165.103 138.49 163.825 143.257 161.962C148.187 160.033 152.368 157.462 156.524 153.286C160.681 149.11 163.24 144.925 165.146 139.984C166.994 135.214 168.25 129.759 168.596 121.782C168.946 113.776 169.028 111.22 168.989 90.856C168.95 70.492 168.859 67.939 168.479 59.941C168.1 51.943 166.829 46.5115 164.959 41.743C163.031 36.8125 160.459 32.638 156.286 28.4755C152.113 24.313 147.925 21.7555 142.985 19.8535C138.212 18.007 132.76 16.7485 124.777 16.4035C116.794 16.0585 114.224 15.97 93.856 16.009C73.4875 16.048 70.9375 16.135 62.938 16.525ZM63.814 152.107C56.5015 151.789 52.531 150.574 49.885 149.557C46.381 148.207 43.885 146.575 41.248 143.964C38.611 141.352 36.991 138.847 35.623 135.351C34.5955 132.705 33.358 128.739 33.016 121.426C32.644 113.523 32.566 111.15 32.5225 91.126C32.479 71.1025 32.5555 68.7325 32.902 60.826C33.214 53.5195 34.4365 49.5445 35.452 46.9C36.802 43.3915 38.428 40.9 41.0455 38.2645C43.663 35.629 46.1605 34.006 49.66 32.638C52.303 31.606 56.269 30.379 63.5785 30.031C71.488 29.656 73.858 29.581 93.8785 29.5375C113.899 29.494 116.275 29.569 124.187 29.917C131.494 30.235 135.47 31.4455 138.112 32.467C141.617 33.817 144.112 35.4385 146.747 38.0605C149.383 40.6825 151.007 43.171 152.375 46.678C153.409 49.3135 154.636 53.278 154.981 60.592C155.357 68.5015 155.443 70.873 155.479 90.892C155.515 110.911 155.444 113.289 155.098 121.192C154.778 128.505 153.566 132.477 152.548 135.126C151.198 138.628 149.57 141.126 146.951 143.76C144.332 146.394 141.838 148.017 138.337 149.385C135.697 150.415 131.726 151.645 124.423 151.993C116.513 152.365 114.143 152.443 94.1155 152.487C74.0875 152.53 71.725 152.449 63.8155 152.107M124.955 50.9155C124.958 52.6957 125.489 54.435 126.481 55.9134C127.472 57.3919 128.88 58.5431 130.526 59.2214C132.172 59.8998 133.982 60.0748 135.727 59.7244C137.472 59.374 139.075 58.5139 140.331 57.2528C141.588 55.9917 142.442 54.3864 142.786 52.6398C143.13 50.8932 142.948 49.0838 142.264 47.4404C141.579 45.7971 140.423 44.3936 138.941 43.4075C137.459 42.4214 135.718 41.897 133.937 41.9005C131.551 41.9053 129.264 42.8577 127.58 44.5482C125.895 46.2388 124.952 48.5291 124.955 50.9155ZM55.4905 91.075C55.5325 112.345 72.8065 129.549 94.072 129.508C115.337 129.468 132.553 112.195 132.512 90.925C132.472 69.655 115.193 52.447 93.925 52.489C72.6565 52.531 55.45 69.808 55.4905 91.075ZM68.9995 91.048C68.9897 86.1034 70.4464 81.2669 73.1854 77.1502C75.9243 73.0335 79.8225 69.8214 84.387 67.9201C88.9515 66.0188 93.9772 65.5138 98.8287 66.4688C103.68 67.4239 108.14 69.7961 111.643 73.2856C115.146 76.775 117.536 81.225 118.51 86.0727C119.485 90.9204 118.999 95.9481 117.116 100.52C115.233 105.092 112.036 109.003 107.931 111.758C103.825 114.513 98.9941 115.989 94.0495 115.999C90.7663 116.006 87.5139 115.366 84.478 114.116C81.4421 112.865 78.6823 111.029 76.3561 108.712C74.0299 106.395 72.1829 103.643 70.9207 100.612C69.6584 97.5811 69.0056 94.3313 68.9995 91.048Z" fill="white"/>
</g>
</g>
<defs>
<filter id="filter0_dd_41_7" x="0.799877" y="0.800488" width="285.898" height="302.9" filterUnits="userSpaceOnUse" color-interpolation-filters="sRGB">
<feFlood flood-opacity="0" result="BackgroundImageFix"/>
<feColorMatrix in="SourceAlpha" type="matrix" values="0 0 0 0 0 0 0 0 0 0 0 0 0 0 0 0 0 0 127 0" result="hardAlpha"/>
<feOffset dx="53" dy="73"/>
<feGaussianBlur stdDeviation="32.35"/>
<feComposite in2="hardAlpha" operator="out"/>
<feColorMatrix type="matrix" values="0 0 0 0 0.109804 0 0 0 0 0 0 0 0 0 0.411765 0 0 0 0.6 0"/>
<feBlend mode="normal" in2="BackgroundImageFix" result="effect1_dropShadow_41_7"/>
<feColorMatrix in="SourceAlpha" type="matrix" values="0 0 0 0 0 0 0 0 0 0 0 0 0 0 0 0 0 0 127 0" result="hardAlpha"/>
<feOffset dx="19" dy="22"/>
<feGaussianBlur stdDeviation="18.6"/>
<feComposite in2="hardAlpha" operator="out"/>
<feColorMatrix type="matrix" values="0 0 0 0 0.111543 0 0 0 0 0 0 0 0 0 0.4125 0 0 0 1 0"/>
<feBlend mode="overlay" in2="effect1_dropShadow_41_7" result="effect2_dropShadow_41_7"/>
<feBlend mode="normal" in="SourceGraphic" in2="effect2_dropShadow_41_7" result="shape"/>
</filter>
</defs>
</svg>
