<svg width="289" height="304" viewBox="0 0 289 304" fill="none" xmlns="http://www.w3.org/2000/svg">
<g id="Path 2520" filter="url(#filter0_ddi_1_43)">
<path d="M170.91 166H139.455V117.278C139.455 105.66 139.245 90.7035 123.095 90.7035C106.711 90.7035 104.205 103.362 104.205 116.432V165.997H72.7493V65.8045H102.947V79.4968H103.369C106.391 74.3862 110.758 70.182 116.005 67.3319C121.252 64.4819 127.182 63.0927 133.164 63.3123C165.045 63.3123 170.923 84.0534 170.923 111.036L170.91 166ZM37.2572 52.1089C33.6469 52.1095 30.1174 51.0513 27.1152 49.068C24.113 47.0847 21.773 44.2654 20.3908 40.9666C19.0086 37.6678 18.6464 34.0377 19.3501 30.5354C20.0538 27.033 21.7918 23.8157 24.3442 21.2903C26.8966 18.7649 30.1488 17.0448 33.6896 16.3476C37.2304 15.6503 40.9007 16.0072 44.2364 17.3731C47.5721 18.739 50.4234 21.0526 52.4297 24.0212C54.436 26.9899 55.5073 30.4804 55.5079 34.0512C55.5084 36.4222 55.0366 38.77 54.1196 40.9606C53.2027 43.1512 51.8586 45.1418 50.1639 46.8186C48.4691 48.4954 46.4569 49.8256 44.2424 50.7333C42.0279 51.641 39.6544 52.1085 37.2572 52.1089ZM52.9849 166H21.4968V65.8045H52.9849V166Z" fill="white"/>
</g>
<defs>
<filter id="filter0_ddi_1_43" x="0.799999" y="0.799999" width="287.823" height="302.9" filterUnits="userSpaceOnUse" color-interpolation-filters="sRGB">
<feFlood flood-opacity="0" result="BackgroundImageFix"/>
<feColorMatrix in="SourceAlpha" type="matrix" values="0 0 0 0 0 0 0 0 0 0 0 0 0 0 0 0 0 0 127 0" result="hardAlpha"/>
<feOffset dx="53" dy="73"/>
<feGaussianBlur stdDeviation="32.35"/>
<feComposite in2="hardAlpha" operator="out"/>
<feColorMatrix type="matrix" values="0 0 0 0 0 0 0 0 0 0 0 0 0 0 0 0 0 0 0.3 0"/>
<feBlend mode="overlay" in2="BackgroundImageFix" result="effect1_dropShadow_1_43"/>
<feColorMatrix in="SourceAlpha" type="matrix" values="0 0 0 0 0 0 0 0 0 0 0 0 0 0 0 0 0 0 127 0" result="hardAlpha"/>
<feOffset dx="19" dy="22"/>
<feGaussianBlur stdDeviation="18.6"/>
<feComposite in2="hardAlpha" operator="out"/>
<feColorMatrix type="matrix" values="0 0 0 0 0 0 0 0 0 0 0 0 0 0 0 0 0 0 0.3 0"/>
<feBlend mode="overlay" in2="effect1_dropShadow_1_43" result="effect2_dropShadow_1_43"/>
<feBlend mode="normal" in="SourceGraphic" in2="effect2_dropShadow_1_43" result="shape"/>
<feColorMatrix in="SourceAlpha" type="matrix" values="0 0 0 0 0 0 0 0 0 0 0 0 0 0 0 0 0 0 127 0" result="hardAlpha"/>
<feOffset dx="-2" dy="-4"/>
<feGaussianBlur stdDeviation="2"/>
<feComposite in2="hardAlpha" operator="arithmetic" k2="-1" k3="1"/>
<feColorMatrix type="matrix" values="0 0 0 0 0.188235 0 0 0 0 0.419608 0 0 0 0 0.74902 0 0 0 0.45 0"/>
<feBlend mode="normal" in2="shape" result="effect3_innerShadow_1_43"/>
</filter>
</defs>
</svg>
