<svg width="35" height="35" viewBox="0 0 35 35" fill="none" xmlns="http://www.w3.org/2000/svg">
<g id="Group 193">
<rect id="Rectangle 222" width="35" height="35" rx="6" fill="#282828"/>
<g id="Group">
<path id="Vector" fill-rule="evenodd" clip-rule="evenodd" d="M17.7117 9C17.5583 9 17.4112 9.06093 17.3027 9.16938C17.1943 9.27784 17.1334 9.42494 17.1334 9.57831V18.0394L15.8379 16.5273C15.7885 16.4696 15.7282 16.4222 15.6605 16.3878C15.5927 16.3534 15.5189 16.3326 15.4431 16.3268C15.3674 16.3209 15.2912 16.33 15.219 16.3536C15.1467 16.3771 15.0798 16.4147 15.0221 16.4641C14.9644 16.5135 14.917 16.5738 14.8826 16.6416C14.8482 16.7093 14.8274 16.7832 14.8216 16.8589C14.8157 16.9347 14.8248 17.0108 14.8484 17.0831C14.8719 17.1553 14.9095 17.2222 14.9589 17.2799L17.2722 19.9787C17.3264 20.0422 17.3938 20.0932 17.4697 20.1281C17.5456 20.1631 17.6281 20.1812 17.7117 20.1812C17.7952 20.1812 17.8777 20.1631 17.9536 20.1281C18.0295 20.0932 18.0969 20.0422 18.1512 19.9787L20.4644 17.2799C20.5139 17.2222 20.5514 17.1553 20.575 17.0831C20.5986 17.0108 20.6077 16.9347 20.6018 16.8589C20.5959 16.7832 20.5752 16.7093 20.5408 16.6416C20.5064 16.5738 20.4589 16.5135 20.4012 16.4641C20.3435 16.4147 20.2766 16.3771 20.2044 16.3536C20.1321 16.33 20.056 16.3209 19.9802 16.3268C19.9045 16.3326 19.8306 16.3534 19.7629 16.3878C19.6951 16.4222 19.6348 16.4696 19.5854 16.5273L18.29 18.0387V9.57831C18.29 9.42494 18.2291 9.27784 18.1206 9.16938C18.0121 9.06093 17.865 9 17.7117 9Z" fill="#CCCCCC"/>
<path id="Vector_2" d="M19.4458 14.9759V15.2674C19.8062 15.1393 20.1988 15.1339 20.5625 15.2521C20.9263 15.3703 21.2407 15.6055 21.457 15.9209C21.6732 16.2364 21.7791 16.6145 21.7581 16.9964C21.7372 17.3783 21.5906 17.7426 21.3411 18.0325L19.0279 20.7313C18.865 20.9212 18.663 21.0737 18.4356 21.1782C18.2083 21.2827 17.961 21.3368 17.7108 21.3368C17.4606 21.3368 17.2134 21.2827 16.9861 21.1782C16.7587 21.0737 16.5567 20.9212 16.3938 20.7313L14.0806 18.0325C13.8318 17.7424 13.6858 17.3783 13.6652 16.9967C13.6445 16.6151 13.7505 16.2374 13.9665 15.9222C14.1826 15.607 14.4967 15.3719 14.86 15.2535C15.2233 15.1351 15.6156 15.14 15.9759 15.2674V14.9759H14.6265C12.4459 14.9759 11.3548 14.9759 10.6778 15.6537C10 16.3307 10 17.4218 10 19.6024V20.3735C10 22.5541 10 23.6452 10.6778 24.3222C11.3548 25 12.4459 25 14.6265 25H20.7952C22.9758 25 24.0669 25 24.7439 24.3222C25.4217 23.6452 25.4217 22.5541 25.4217 20.3735V19.6024C25.4217 17.4218 25.4217 16.3307 24.7439 15.6537C24.0669 14.9759 22.9758 14.9759 20.7952 14.9759H19.4458Z" fill="#CCCCCC"/>
</g>
</g>
</svg>
