<svg width="14" height="12" viewBox="0 0 14 12" fill="none" xmlns="http://www.w3.org/2000/svg">
<g id="Group">
<path id="Vector" d="M8.14445 0.333005C7.6826 0.11375 7.17774 0 6.66648 0C6.15522 0 5.65036 0.11375 5.18851 0.333005L0.727785 2.42417C0.0101974 2.76016 -0.176199 3.70895 0.166195 4.36493V7.66648C0.166195 7.79908 0.218872 7.92626 0.312639 8.02002C0.406405 8.11379 0.53358 8.16647 0.666186 8.16647C0.798792 8.16647 0.925967 8.11379 1.01973 8.02002C1.1135 7.92626 1.16618 7.79908 1.16618 7.66648V5.11452L5.18851 7.00009C5.65036 7.21934 6.15522 7.33309 6.66648 7.33309C7.17774 7.33309 7.6826 7.21934 8.14445 7.00009L12.6052 4.90892C13.5756 4.45453 13.5756 2.87936 12.6052 2.42497L8.14445 0.333005Z" fill="#916CE7"/>
<path id="Vector_2" d="M1.99756 6.60969V9.08325C1.99756 9.75524 2.33355 10.3848 2.92074 10.7104C3.89993 11.2528 5.4671 12 6.66468 12C7.86146 12 9.42863 11.2528 10.407 10.7104C10.995 10.3848 11.331 9.75524 11.331 9.08325V6.60969L8.56704 7.90567C7.97225 8.1873 7.32237 8.33338 6.66428 8.33338C6.00618 8.33338 5.3563 8.1873 4.76151 7.90567L1.99756 6.60969Z" fill="#916CE7"/>
</g>
</svg>
